<?xml version="1.0" standalone="no"?>
<!DOCTYPE svg PUBLIC "-//W3C//DTD SVG 20010904//EN"
 "http://www.w3.org/TR/2001/REC-SVG-20010904/DTD/svg10.dtd">
<svg version="1.0" xmlns="http://www.w3.org/2000/svg"
 width="648.000000pt" height="648.000000pt" viewBox="0 0 648.000000 648.000000"
 preserveAspectRatio="xMidYMid meet">
<metadata>
Created by potrace 1.11, written by Peter Selinger 2001-2013
</metadata>
<g transform="translate(0.000000,648.000000) scale(0.100000,-0.100000)"
fill="#000000" stroke="none">
<path d="M2708 3975 c-2 -1 -34 -5 -73 -9 -185 -17 -390 -92 -550 -199 -182
-122 -364 -311 -509 -526 -59 -87 -63 -100 -44 -119 25 -25 48 -9 124 86 165
205 414 422 469 408 48 -12 79 -86 90 -216 3 -41 8 -93 10 -115 3 -22 7 -74
11 -115 4 -41 8 -84 9 -95 2 -11 4 -32 4 -47 2 -58 62 -19 80 51 16 59 20 126
22 321 1 197 12 269 50 321 36 51 81 65 243 74 59 3 87 0 110 -12 66 -33 83
-68 91 -184 3 -52 8 -112 10 -134 8 -79 16 -171 20 -210 4 -41 11 -110 20
-200 3 -27 8 -66 10 -85 3 -19 7 -57 10 -85 8 -87 17 -145 22 -145 3 0 21 9
40 21 41 25 70 79 81 151 8 54 8 72 -2 188 -4 36 -8 178 -11 315 -4 190 -2
254 8 266 18 23 52 39 83 39 51 0 361 -115 397 -148 67 -60 90 -146 102 -382
3 -63 8 -128 10 -145 2 -16 6 -84 10 -150 4 -66 9 -127 11 -135 1 -8 3 -18 3
-22 1 -5 14 -8 30 -8 54 0 83 77 83 223 0 73 -11 344 -17 406 -3 39 30 81 64
81 11 0 79 -24 153 -54 73 -30 180 -68 238 -84 89 -26 140 -37 300 -67 21 -4
104 -14 175 -20 33 -4 132 -6 220 -6 150 0 216 4 325 17 25 3 63 7 85 9 54 5
287 51 355 71 30 8 60 16 65 18 78 19 134 45 166 77 120 120 41 326 -129 335
-30 2 -71 -7 -126 -28 -154 -57 -305 -98 -486 -133 -14 -3 -50 -8 -80 -11 -30
-3 -57 -7 -61 -9 -9 -6 -234 -19 -319 -19 -252 1 -469 44 -755 149 -182 67
-469 166 -525 182 -269 74 -423 101 -597 107 -67 2 -123 2 -125 1z"/>
<path d="M2621 3369 c-36 -39 -44 -116 -37 -354 4 -121 8 -233 10 -250 3 -31
-9 -65 -28 -77 -23 -16 -63 -6 -185 44 -167 68 -294 107 -441 134 -187 35
-306 46 -490 46 -161 0 -250 -6 -410 -27 -208 -28 -495 -98 -558 -137 -83 -51
-115 -172 -69 -258 32 -59 93 -100 156 -106 39 -3 70 4 156 36 101 37 290 92
366 105 18 3 35 7 38 9 3 2 30 7 60 11 30 4 63 8 74 11 10 2 45 6 76 9 31 3
72 8 91 11 49 7 334 6 395 -1 255 -30 312 -45 716 -191 391 -141 640 -209 850
-233 75 -9 336 -7 375 2 12 3 37 8 55 11 66 10 213 57 288 92 242 112 483 332
676 620 60 88 65 108 36 124 -19 10 -51 4 -51 -9 0 -3 -10 -17 -22 -31 -13
-14 -49 -57 -80 -95 -98 -121 -283 -291 -388 -357 -67 -42 -122 45 -135 212
-3 47 -8 101 -10 120 -3 19 -7 62 -10 95 -17 190 -21 202 -58 167 -38 -36 -50
-102 -53 -302 -5 -285 -12 -342 -56 -406 -34 -50 -72 -61 -228 -70 -99 -6
-107 -5 -139 18 -55 37 -70 72 -76 178 -4 52 -8 113 -10 135 -2 22 -6 72 -10
110 -3 39 -8 84 -10 100 -3 17 -7 62 -10 100 -3 39 -10 106 -15 150 -5 44 -12
109 -16 145 -4 36 -8 72 -10 80 -1 8 -3 20 -3 27 -2 21 -41 1 -75 -38 -18 -21
-38 -58 -45 -81 -12 -40 -16 -174 -7 -248 3 -19 8 -151 11 -292 l7 -257 -27
-26 c-42 -38 -70 -38 -196 6 -124 43 -240 91 -264 109 -36 27 -55 56 -74 111
-19 52 -24 95 -36 279 -3 47 -8 110 -10 140 -2 30 -7 102 -10 160 -3 58 -8
114 -10 125 -2 11 -4 23 -4 28 -2 16 -51 6 -70 -14z"/>
</g>
</svg>
